# xmcd CD database file
#
# Track frame offsets:
#	150
#	16410
#	34650
#	46852
#	59272
#	74157
#	90887
#	102997
#	117977
#	149920
#	166122
#
# Disc length: 2470 seconds
#
# Revision: 3
# Processed by: cddbd v1.5.2PL0 Copyright (c) Steve Scherf et al.
# Submitted via: CDex 1.51
#
DISCID=9509a40b
DTITLE=Various Artist - Rat Race - Soundtrack
DYEAR=2001
DGENRE=Soundtrack
TTITLE0=Rat Race [Baha Men]
TTITLE1=You Sexy Thing [Hot Chocolate]
TTITLE2=Happy [Colony]
TTITLE3=Chain Of Fools [Aretha Franklin]
TTITLE4=Who Let The Dogs Out [Baha Men]
TTITLE5=I Do [Better Than Ezra]
TTITLE6=I Can't Help Myself (Sugar Pie, Honey Bunch) [Four Tops]
TTITLE7=All Star (Exclusive Film Recording) [Smash Mouth]
TTITLE8=Rat Race Score Suite [John Powell]
TTITLE9=Rat Race (Choir Version) [Baha Men]
TTITLE10=America Rocks [The Hatch-Perry Band]
EXTD=YEAR: 2001
EXTT0=
EXTT1=
EXTT2=
EXTT3=
EXTT4=
EXTT5=
EXTT6=
EXTT7=
EXTT8=
EXTT9=
EXTT10=
PLAYORDER=
